<svg xmlns="http://www.w3.org/2000/svg" version="1.1" xmlns:xlink="http://www.w3.org/1999/xlink" xmlns:svgjs="http://svgjs.dev/svgjs" width="128" height="128" viewBox="0 0 128 128"><g transform="matrix(0.8046875,0,0,0.8046875,12.333870967741937,25.38859173763109)"><svg viewBox="0 0 155 117" data-background-color="#ffffff" preserveAspectRatio="xMidYMid meet" height="96" width="128" xmlns="http://www.w3.org/2000/svg" xmlns:xlink="http://www.w3.org/1999/xlink"><g id="tight-bounds" transform="matrix(1,0,0,1,0.25,-0.020585544373304288)"><svg viewBox="0 0 154.5 117.04117108874658" height="117.04117108874658" width="154.5"><g><svg viewBox="0 0 154.5 117.04117108874658" height="117.04117108874658" width="154.5"><g><svg viewBox="0 0 154.5 117.04117108874658" height="117.04117108874658" width="154.5"><g id="textblocktransform"><svg viewBox="0 0 154.5 117.04117108874658" height="117.04117108874658" width="154.5" id="textblock"><g><svg viewBox="0 0 154.5 117.04117108874658" height="117.04117108874658" width="154.5"><g transform="matrix(1,0,0,1,0,0)"><svg width="154.5" viewBox="0.9 -39.35 54.65 41.4" height="117.04117108874658" data-palette-color="#000000"><path d="M49.65-0.4Q47.4 2.05 44.48 2.05 41.55 2.05 38.85-0.78 36.15-3.6 34.35-8.85 32.55-14.1 31.85-18.25L31.85-18.25Q30.25-15.05 29.35-13.38 28.45-11.7 26.7-9.1 24.95-6.5 23.05-4.4L23.05-4.4Q17.15 1.95 9.7 1.95L9.7 1.95Q2.95 1.95 1.3-1.7L1.3-1.7Q0.9-2.55 0.9-3.68 0.9-4.8 2.05-6.1L2.05-6.1Q3.9-8.15 7.15-8.15L7.15-8.15Q9.35-8.15 11.8-7.3L11.8-7.3Q12.45-7.05 12.3-6.75 12.15-6.45 11-6.9 9.85-7.35 8.22-7.35 6.6-7.35 5.43-6.1 4.25-4.85 4.25-3.5L4.25-3.5Q4.25-2.9 4.5-2.2L4.5-2.2Q5.5 0.4 9.2 0.4L9.2 0.4Q13.3 0.4 16.45-2.05L16.45-2.05Q18.25-3.45 19.7-4.9 21.15-6.35 22.8-8.8L22.8-8.8Q25.4-12.55 27.23-15.78 29.05-19 31.18-22.83 33.3-26.65 34.3-28.4L34.3-28.4Q37.5-33.85 40.15-36.75L40.15-36.75Q37.35-37 34.55-37L34.55-37Q28.15-37 21.83-35.68 15.5-34.35 11.8-31.3L11.8-31.3Q7.15-27.45 7.15-23.1L7.15-23.1Q7.15-21 8.65-19.38 10.15-17.75 12.7-17.75L12.7-17.75Q15.8-17.75 17.85-19.95 19.9-22.15 20-23.45L20-23.45Q20.05-24.1 20.3-24.1L20.3-24.1Q20.7-24.1 20.65-23.35L20.65-23.35Q20.3-20.95 18.7-19.3L18.7-19.3Q15.9-16.4 12-16.4L12-16.4Q9.05-16.4 6.88-18.4 4.7-20.4 4.7-23.75L4.7-23.75Q4.7-28.7 9.53-32.63 14.35-36.55 22.2-37.7L22.2-37.7Q27.8-38.5 32.52-38.5 37.25-38.5 41.25-37.95L41.25-37.95Q42.55-39.35 43.05-39.35L43.05-39.35Q43.35-39.35 43.35-38.88 43.35-38.4 43.1-37.7L43.1-37.7Q46.8-37.1 48.05-36.75L48.05-36.75Q55.55-34.55 55.55-29.95L55.55-29.95Q55.55-27 51.9-24.1L51.9-24.1Q47.3-20.55 39.6-19.3L39.6-19.3Q37.4-18.95 35-18.85L35-18.85Q36.6-10 40.55-3.95L40.55-3.95Q41.9-1.9 43.03-0.98 44.15-0.05 45.45-0.05L45.45-0.05Q47.25-0.05 49.28-2.05 51.3-4.05 53.95-9.35L53.95-9.35Q54.35-10.1 54.75-10.1L54.75-10.1Q55.15-10.1 54.8-9.35L54.8-9.35Q51.9-2.85 49.65-0.4ZM51.95-30.7L51.95-30.7Q51.95-31.1 51.85-31.5L51.85-31.5Q51.3-34.3 47.4-35.5L47.4-35.5Q46.2-35.85 42.5-36.45L42.5-36.45Q41.6-34.9 38.1-29.2 34.6-23.5 32.9-20.15L32.9-20.15Q34-20.35 36.13-20.53 38.25-20.7 39.2-20.8L39.2-20.8Q44.9-21.5 48.9-25.25L48.9-25.25Q51.95-28.05 51.95-30.7Z" opacity="1" transform="matrix(1,0,0,1,0,0)" fill="#000000" class="wordmark-text-0" data-fill-palette-color="primary" id="text-0"></path></svg></g></svg></g></svg></g></svg></g></svg></g><defs></defs></svg><rect width="154.5" height="117.04117108874658" fill="none" stroke="none" visibility="hidden"></rect></g></svg></g></svg>