<svg xmlns="http://www.w3.org/2000/svg" version="1.1" xmlns:xlink="http://www.w3.org/1999/xlink" xmlns:svgjs="http://svgjs.dev/svgjs" width="1000" height="338" viewBox="0 0 1000 338"><g transform="matrix(1,0,0,1,-0.606060459717412,0.20490042564026112)"><svg viewBox="0 0 396 134" data-background-color="#ffffff" preserveAspectRatio="xMidYMid meet" height="338" width="1000" xmlns="http://www.w3.org/2000/svg" xmlns:xlink="http://www.w3.org/1999/xlink"><g id="tight-bounds" transform="matrix(1,0,0,1,0.24000005795187462,-0.08122776830055045)"><svg viewBox="0 0 395.52 134.16245800901268" height="134.16245800901268" width="395.52"><g><svg viewBox="0 0 395.52 134.16245800901268" height="134.16245800901268" width="395.52"><g><svg viewBox="0 0 395.52 134.16245800901268" height="134.16245800901268" width="395.52"><g id="textblocktransform"><svg viewBox="0 0 395.52 134.16245800901268" height="134.16245800901268" width="395.52" id="textblock"><g><svg viewBox="0 0 395.52 134.16245800901268" height="134.16245800901268" width="395.52"><g transform="matrix(1,0,0,1,0,0)"><svg width="395.52" viewBox="0.9000000357627869 -39.349998474121094 122.04000091552734 41.39999771118164" height="134.16245800901268" data-palette-color="#FFFFFF"><path d="M49.65-0.4Q47.4 2.05 44.48 2.05 41.55 2.05 38.85-0.78 36.15-3.6 34.35-8.85 32.55-14.1 31.85-18.25L31.85-18.25Q30.25-15.05 29.35-13.38 28.45-11.7 26.7-9.1 24.95-6.5 23.05-4.4L23.05-4.4Q17.15 1.95 9.7 1.95L9.7 1.95Q2.95 1.95 1.3-1.7L1.3-1.7Q0.9-2.55 0.9-3.68 0.9-4.8 2.05-6.1L2.05-6.1Q3.9-8.15 7.15-8.15L7.15-8.15Q9.35-8.15 11.8-7.3L11.8-7.3Q12.45-7.05 12.3-6.75 12.15-6.45 11-6.9 9.85-7.35 8.22-7.35 6.6-7.35 5.43-6.1 4.25-4.85 4.25-3.5L4.25-3.5Q4.25-2.9 4.5-2.2L4.5-2.2Q5.5 0.4 9.2 0.4L9.2 0.4Q13.3 0.4 16.45-2.05L16.45-2.05Q18.25-3.45 19.7-4.9 21.15-6.35 22.8-8.8L22.8-8.8Q25.4-12.55 27.23-15.78 29.05-19 31.18-22.83 33.3-26.65 34.3-28.4L34.3-28.4Q37.5-33.85 40.15-36.75L40.15-36.75Q37.35-37 34.55-37L34.55-37Q28.15-37 21.83-35.68 15.5-34.35 11.8-31.3L11.8-31.3Q7.15-27.45 7.15-23.1L7.15-23.1Q7.15-21 8.65-19.38 10.15-17.75 12.7-17.75L12.7-17.75Q15.8-17.75 17.85-19.95 19.9-22.15 20-23.45L20-23.45Q20.05-24.1 20.3-24.1L20.3-24.1Q20.7-24.1 20.65-23.35L20.65-23.35Q20.3-20.95 18.7-19.3L18.7-19.3Q15.9-16.4 12-16.4L12-16.4Q9.05-16.4 6.88-18.4 4.7-20.4 4.7-23.75L4.7-23.75Q4.7-28.7 9.53-32.63 14.35-36.55 22.2-37.7L22.2-37.7Q27.8-38.5 32.52-38.5 37.25-38.5 41.25-37.95L41.25-37.95Q42.55-39.35 43.05-39.35L43.05-39.35Q43.35-39.35 43.35-38.88 43.35-38.4 43.1-37.7L43.1-37.7Q46.8-37.1 48.05-36.75L48.05-36.75Q55.55-34.55 55.55-29.95L55.55-29.95Q55.55-27 51.9-24.1L51.9-24.1Q47.3-20.55 39.6-19.3L39.6-19.3Q37.4-18.95 35-18.85L35-18.85Q36.6-10 40.55-3.95L40.55-3.95Q41.9-1.9 43.03-0.98 44.15-0.05 45.45-0.05L45.45-0.05Q47.25-0.05 49.28-2.05 51.3-4.05 53.95-9.35L53.95-9.35Q54.35-10.1 54.75-10.1L54.75-10.1Q55.15-10.1 54.8-9.35L54.8-9.35Q51.9-2.85 49.65-0.4ZM51.95-30.7L51.95-30.7Q51.95-31.1 51.85-31.5L51.85-31.5Q51.3-34.3 47.4-35.5L47.4-35.5Q46.2-35.85 42.5-36.45L42.5-36.45Q41.6-34.9 38.1-29.2 34.6-23.5 32.9-20.15L32.9-20.15Q34-20.35 36.13-20.53 38.25-20.7 39.2-20.8L39.2-20.8Q44.9-21.5 48.9-25.25L48.9-25.25Q51.95-28.05 51.95-30.7ZM60.9-19.45Q60.2-18.85 59.35-18.85 58.5-18.85 58-19.45 57.5-20.05 57.6-20.9L57.6-20.9Q57.75-21.75 58.45-22.35 59.15-22.95 60-22.95 60.85-22.95 61.37-22.35 61.9-21.75 61.75-20.9 61.6-20.05 60.9-19.45ZM56-1.1L56-1.1Q56.95-1.1 58-2.05L58-2.05Q59.85-3.9 62.7-9.6L62.7-9.6Q63.05-10.35 63.4-10.05L63.4-10.05Q63.5-9.95 63.5-9.73 63.5-9.5 63.1-8.63 62.7-7.75 62.37-7.05 62.05-6.35 61.12-4.78 60.2-3.2 59.45-2.35L59.45-2.35Q57.4 0 55.57 0 53.75 0 52.95-1.1 52.15-2.2 52.15-3.55 52.15-4.9 52.8-6.5L52.8-6.5 56-14.65Q56.1-14.95 56.1-15.45 56.1-15.95 55.5-16.75L55.5-16.75 58.25-16.8Q59.4-16.8 59.6-16.38 59.8-15.95 59.3-15.05L59.3-15.05 55.3-5.7Q54.45-3.85 54.45-2.55L54.45-2.55Q54.45-1.1 56-1.1ZM67-0.95L67-0.95Q67.65-0.85 67.9-0.85L67.9-0.85Q69.9-0.85 71.85-3.2L71.85-3.2Q72.9-4.5 75.6-9.75L75.6-9.75Q75.7-10 75.95-10L75.95-10Q76.4-10.05 76.4-9.65L76.4-9.65Q76.4-9.55 76.17-9.08 75.95-8.6 75.75-8.13 75.55-7.65 75.1-6.75 74.65-5.85 74.32-5.3 74-4.75 73.5-3.95 73-3.15 72.5-2.7L72.5-2.7 71.45-1.6Q70.6-0.75 69.45-0.4L69.45-0.4Q67.6 0.2 65.85-0.3L65.85-0.3Q64.7 0.2 63.8 0.2L63.8 0.2Q60.25 0.2 59.5-2.6L59.5-2.6Q59.35-3.25 59.35-4.17 59.35-5.1 59.97-5.95 60.6-6.8 61.3-6.85L61.3-6.85Q63.85-11.7 65.65-15.6L65.65-15.6Q67.65-19.85 70.3-19.85L70.3-19.85Q71-19.85 71.67-19.53 72.35-19.2 72.17-18.8 72-18.4 71.45-18.65 70.9-18.9 70.5-18.9 70.1-18.9 69.8-18.75L69.8-18.75Q68.1-17.95 68.1-15.3L68.1-15.3Q68.1-13.9 68.5-13 68.9-12.1 69.4-11.05L69.4-11.05Q70.55-8.45 70.55-6.8L70.55-6.8Q70.55-5.15 69.5-3.55 68.45-1.95 67-0.95ZM65.3-1.3L65.3-1.3Q67.5-3 67.5-6.8L67.5-6.8Q67.5-8.35 67.15-11.05 66.8-13.75 66.8-14.7 66.8-15.65 66.85-16L66.85-16Q63.05-8.4 62.15-6.75L62.15-6.75Q63.2-6.75 63.2-5.25L63.2-5.25Q63.2-2.3 65.3-1.3ZM61.55-2.65L61.55-2.65Q61.55-2.35 61.6-2L61.6-2Q62-0.65 63.45-0.65L63.45-0.65Q64.05-0.65 64.45-0.85L64.45-0.85Q62.6-2 62.45-4.6L62.45-4.6Q61.55-3.7 61.55-2.65ZM84.44-2.25L84.44-2.25Q84.44-0.85 85.44-0.85L85.44-0.85Q87.79-0.85 92.09-9.65L92.09-9.65Q92.44-10.35 92.72-10.2 92.99-10.05 92.99-9.8 92.99-9.55 92.42-8.38 91.84-7.2 91.27-6.13 90.69-5.05 89.59-3.3L89.59-3.3Q87.29 0.2 84.69 0.2L84.69 0.2Q82.99 0.2 81.99-1.2L81.99-1.2Q81.54-1.85 81.54-2.98 81.54-4.1 82.04-5.7 82.54-7.3 84.79-10.9L84.79-10.9Q85.34-11.8 85.34-12.33 85.34-12.85 84.49-12.85 83.64-12.85 81.24-10.6L81.24-10.6Q77.64-7.3 74.24-0.7L74.24-0.7Q73.89 0.05 72.39 0.05L72.39 0.05Q71.04 0.15 70.69 0.35L70.69 0.35Q80.19-19.4 84.44-27.2L84.44-27.2Q85.39-28.95 86.12-29.65 86.84-30.35 87.84-30.35L87.84-30.35Q88.09-30.35 88.89-30.23 89.69-30.1 90.09-30.15L90.09-30.15Q88.59-28.6 84.72-21.58 80.84-14.55 77.29-7.3L77.29-7.3Q79.64-10.25 81.52-11.9 83.39-13.55 86.09-15.03 88.79-16.5 90.04-16.5L90.04-16.5Q90.34-16.5 90.59-16.4L90.59-16.4Q84.44-5.6 84.44-2.25ZM107.34-13.55Q106.44-12.65 104.79-9.47 103.14-6.3 102.82-4.73 102.49-3.15 102.49-2.18 102.49-1.2 103.24-1.2L103.24-1.2Q104.19-1.2 105.59-2.95L105.59-2.95Q107.64-5.5 109.64-9.6L109.64-9.6Q109.84-10.05 110.09-10.1L110.09-10.1Q110.49-10.25 110.49-9.8L110.49-9.8Q110.49-9.55 110.34-9.2L110.34-9.2Q105.74 0.1 102.59 0.1L102.59 0.1Q101.14 0.1 100.24-1.3L100.24-1.3Q99.79-2.05 99.79-3.3 99.79-4.55 100.29-6.35L100.29-6.35Q96.29 0.1 93.39 0.1L93.39 0.1Q92.59 0.1 91.94-0.4L91.94-0.4Q90.44-1.45 90.44-4L90.44-4Q90.44-8.9 94.69-13.95L94.69-13.95Q97.09-16.75 100.59-17.6L100.59-17.6Q101.54-17.85 102.39-17.85L102.39-17.85Q104.69-17.85 106.29-16.25L106.29-16.25Q106.79-15.7 106.59-15.2 106.39-14.7 105.74-14.8L105.74-14.8Q105.19-16.6 103.34-16.6L103.34-16.6Q101.19-16.6 98.04-13.2L98.04-13.2Q96.24-11.2 94.69-8.5L94.69-8.5Q92.74-5.25 92.74-3.3 92.74-1.35 93.99-1.35L93.99-1.35Q96.99-1.35 101.84-10.55L101.84-10.55Q102.79-12.4 103.44-13.08 104.09-13.75 105.09-13.75L105.09-13.75Q105.29-13.75 106.12-13.6 106.94-13.45 107.34-13.55L107.34-13.55ZM122.94-17.45L122.94-17.45 122.69-16.55Q120.14-8.6 117.99-4.95L117.99-4.95Q114.84 0.35 111.39 0.35L111.39 0.35Q108.59 0.35 108.59-2.35L108.59-2.35Q108.59-4.4 110.09-8.7L110.09-8.7Q109.59-7.9 109.31-8.18 109.04-8.45 109.19-8.85L109.19-8.85 110.09-10.55Q111.04-12.5 111.04-14.45 111.04-16.4 110.24-16.75L110.24-16.75Q113.24-17.25 113.74-17.23 114.24-17.2 114.36-16.8 114.49-16.4 114.49-15.9L114.49-15.9Q114.49-12.85 112.91-8.7 111.34-4.55 111.34-3.13 111.34-1.7 111.79-1.48 112.24-1.25 112.69-1.25L112.69-1.25Q113.99-1.25 115.64-3.35 117.29-5.45 118.94-9.55L118.94-9.55Q118.24-11.15 118.24-12.38 118.24-13.6 118.54-14.55L118.54-14.55Q119.44-17.4 121.39-18.1L121.39-18.1Q121.79-18.25 122.14-18.25L122.14-18.25Q122.94-18.25 122.94-17.45Z" opacity="1" transform="matrix(1,0,0,1,0,0)" fill="#FFFFFF" class="wordmark-text-0" data-fill-palette-color="primary" id="text-0"></path></svg></g></svg></g></svg></g></svg></g></svg></g><defs></defs></svg><rect width="395.52" height="134.16245800901268" fill="none" stroke="none" visibility="hidden"></rect></g></svg></g></svg>